<?xml version="1.0" encoding="UTF-8" standalone="no"?>
<!-- Created with Inkscape (http://www.inkscape.org/) -->

<svg
   width="512"
   height="512"
   viewBox="0 0 512 512"
   version="1.1"
   id="svg1"
   sodipodi:docname="abc2piano.svg"
   xml:space="preserve"
   inkscape:version="1.4 (e7c3feb, 2024-10-09)"
   inkscape:export-filename="abc2piano.png"
   inkscape:export-xdpi="96"
   inkscape:export-ydpi="96"
   xmlns:inkscape="http://www.inkscape.org/namespaces/inkscape"
   xmlns:sodipodi="http://sodipodi.sourceforge.net/DTD/sodipodi-0.dtd"
   xmlns="http://www.w3.org/2000/svg"
   xmlns:svg="http://www.w3.org/2000/svg"><sodipodi:namedview
     id="namedview1"
     pagecolor="#ffffff"
     bordercolor="#000000"
     borderopacity="0.25"
     inkscape:showpageshadow="2"
     inkscape:pageopacity="0.0"
     inkscape:pagecheckerboard="0"
     inkscape:deskcolor="#d1d1d1"
     inkscape:zoom="0.78710938"
     inkscape:cx="38.114144"
     inkscape:cy="194.38213"
     inkscape:window-width="1920"
     inkscape:window-height="1008"
     inkscape:window-x="0"
     inkscape:window-y="0"
     inkscape:window-maximized="1"
     inkscape:current-layer="svg1" /><defs
     id="defs1"><symbol
       id="sjjb-shopping.svg:music"
       viewBox="0 0 507.77149 480.88791"><title
         id="title54">Music</title><path
         opacity="0.3"
         d="m 0,110.88792 v 10 h 507.77149 v -10 z m 0,60 v 10 h 507.77149 v -10 z m 0,60 v 10 h 507.77149 v -10 z m 0,60 v 10 h 507.77149 v -10 z m 0,60 v 10 h 507.77149 v -10 z m 0,60 v 10 h 507.77149 v -10 z m 0,60 v 10 h 507.77149 v -10 z"
         id="path55" /><path
         d="m 393.3711,0.00314739 c -2.49386,0.03902 -4.91669,0.438478 -7.21485,1.17382801 a 24.774244,24.774244 0 0 0 -4.27734,1.316407 L 169.97657,86.487525 a 24.774244,24.774244 0 0 0 -11.67578,9.27735 c -4.11773,4.632155 -6.30673,10.495635 -6.22852,16.740235 l -0.002,-0.15625 v 215.16602 c -10.45687,-5.31124 -22.23405,-8.39844 -34.71875,-8.39844 -42.376704,0 -77.025398,34.60069 -77.025398,76.98633 0,42.38563 34.639744,77.02343 77.025398,77.02343 37.48833,0 76.65603,-24.83003 83.43359,-69.91992 0.0134,-0.0607 0.0622,-0.2047 0.0742,-0.25976 0.14126,-0.64545 0.17606,-0.93995 0.21484,-1.22657 0.0776,-0.57323 0.114,-0.98326 0.1543,-1.45703 0.0806,-0.94753 0.14937,-2.03727 0.21094,-3.28906 0.12313,-2.50359 0.21334,-5.55996 0.17383,-8.4707 V 127.24144 L 368.98626,60.897685 V 240.09105 c -10.45656,-5.31085 -22.23453,-8.39649 -34.71875,-8.39649 -42.37668,0 -77.02344,34.60068 -77.02344,76.98633 0,42.38564 34.6378,77.02344 77.02344,77.02344 37.48342,0 76.64647,-24.82369 83.43164,-69.90235 0.0144,-0.0652 0.0653,-0.21861 0.0781,-0.27734 0.14125,-0.64544 0.1741,-0.93995 0.21289,-1.22656 0.0776,-0.57324 0.114,-0.98327 0.15429,-1.45703 0.0806,-0.94754 0.14937,-2.03727 0.21094,-3.28907 0.12314,-2.50358 0.21335,-5.55997 0.17383,-8.4707 l 0.002,0.16797 V 24.926985 l -0.002,0.15625 c 0.0849,-6.766277 -2.48937,-13.078338 -7.28125,-17.8554676 -4.79196,-4.777236 -11.10939,-7.33017701 -17.875,-7.22461001 a 12.387122,12.387122 0 0 0 -0.002,0 z"
         id="path56" /></symbol></defs><g
     id="layer1"
     transform="matrix(0.96240602,0,0,0.96240602,9.6240602,9.6240602)"><rect
       style="fill:#0f0505;fill-opacity:0.996078;stroke:#666666;stroke-width:20;stroke-dasharray:none;stroke-opacity:1"
       id="rect1"
       width="512"
       height="512"
       x="0"
       y="0"
       ry="37.478909" /><path
       d="m 129.10375,430.34896 c 0,-13.05827 -12.6502,-13.05827 -17.95512,-13.05827 H 82.991729 V 72.062611 h 28.156901 c 4.89685,0 17.95512,0 17.95512,-12.650202 0,-13.058272 -12.6502,-13.058272 -17.95512,-13.058272 H 69.525385 c -13.874414,0 -17.955124,3.264568 -17.955124,17.955124 V 425.04404 c 0,13.87441 3.264568,17.95512 17.955124,17.95512 h 41.623245 c 4.89685,0 17.95512,0 17.95512,-12.6502 z m 355.02073,-5.30492 V 64.309261 c 0,-13.874414 -3.26457,-17.955124 -17.95512,-17.955124 h -41.62325 c -4.89685,0 -17.95512,0 -17.95512,12.650201 0,13.058273 12.6502,13.058273 17.95512,13.058273 h 28.1569 V 417.29069 h -28.1569 c -4.89685,0 -17.95512,0 -17.95512,12.6502 0,13.05827 12.6502,13.05827 17.95512,13.05827 h 41.62325 c 13.87441,0 17.95512,-3.26457 17.95512,-17.95512 z"
       id="text1"
       style="font-size:408.071px;font-family:'Latin Modern Sans Quotation';-inkscape-font-specification:'Latin Modern Sans Quotation';fill:#fafafa;fill-opacity:0.996078;stroke-width:34.0055"
       transform="scale(0.9557682,1.0462788)"
       aria-label="[3]"
       sodipodi:nodetypes="ssccsssssssssssssssccsssss" /></g><path
     d="m 215.10691,383.19943 c -18.90925,-17.22093 -8.44163,-44.5718 22.62357,-60.77973 10.46762,-5.06498 18.23391,-7.42864 31.74052,-7.09097 8.44163,0.33766 17.89625,5.06498 17.89625,5.06498 l 0.60143,-233.981911 10.36909,0.05113 c 0,0 -1.17823,205.904571 -1.17823,252.502361 0,7.7663 -7.09097,21.61057 -11.14295,26.33788 -18.57158,22.2859 -54.70175,32.41586 -70.90968,17.89626 z"
     id="path1"
     style="fill:#f9f9f9;fill-opacity:1;stroke-width:3.37665"
     sodipodi:nodetypes="ccccccscc" /></svg>
